<svg width="56" height="57" viewBox="0 0 56 57" fill="none" xmlns="http://www.w3.org/2000/svg">
<rect y="0.5" width="56" height="56" rx="28" fill="#F7F4FF"/>
<path d="M19.9967 30.038C17.5463 31.1371 15.995 32.7271 15.995 34.5025C15.995 37.8172 21.3692 40.505 28 40.505C34.6308 40.505 40.005 37.8172 40.005 34.5025C40.005 32.7271 38.4537 31.1371 36.0033 30.038" stroke="#8E26C0" stroke-width="1.5" stroke-linecap="round" stroke-linejoin="round"/>
<path d="M32.8714 35.1695C31.4259 36.11 29.723 36.5763 28 36.5034C26.277 36.5763 24.5741 36.11 23.1286 35.1695" stroke="#8E26C0" stroke-width="1.5" stroke-linecap="round" stroke-linejoin="round"/>
<path d="M30.9346 17.7129C32.1237 18.9019 32.4795 20.6903 31.8359 22.2439C31.1924 23.7976 29.6763 24.8106 27.9947 24.8106C26.313 24.8106 24.7969 23.7976 24.1534 22.2439C23.5099 20.6903 23.8656 18.9019 25.0548 17.7129C25.8343 16.9328 26.8919 16.4946 27.9947 16.4946C29.0974 16.4946 30.155 16.9328 30.9346 17.7129" stroke="#8E26C0" stroke-width="1.5" stroke-linecap="round" stroke-linejoin="round"/>
<path d="M28 24.8078V32.5017" stroke="#8E26C0" stroke-width="1.5" stroke-linecap="round" stroke-linejoin="round"/>
</svg>
