<svg width="56" height="57" viewBox="0 0 56 57" fill="none" xmlns="http://www.w3.org/2000/svg">
<rect y="0.5" width="56" height="56" rx="28" fill="#F7F4FF"/>
<path fill-rule="evenodd" clip-rule="evenodd" d="M16 21.5667V21.5667C16 22.3667 16.4 23.0333 17.0667 23.5667L25.0667 29.0333C26.9333 30.2333 29.2 30.2333 31.0667 29.0333L39.0667 23.7C39.6 23.0333 40 22.3667 40 21.5667V21.5667C40 20.2333 38.9333 19.1667 37.6 19.1667H18.4C17.0667 19.1667 16 20.2333 16 21.5667Z" stroke="#8E26C0" stroke-width="1.5" stroke-linecap="round" stroke-linejoin="round"/>
<path d="M16 21.8333V35.1666C16 36.6333 17.2 37.8333 18.6667 37.8333H37.3333C38.8 37.8333 40 36.6333 40 35.1666V21.8333" stroke="#8E26C0" stroke-width="1.5" stroke-linecap="round" stroke-linejoin="round"/>
<path d="M16.784 37.0493L24.9093 28.924" stroke="#8E26C0" stroke-width="1.5" stroke-linecap="round" stroke-linejoin="round"/>
<path d="M31.1467 28.98L39.216 37.0493" stroke="#8E26C0" stroke-width="1.5" stroke-linecap="round" stroke-linejoin="round"/>
</svg>
